<?xml version="1.0" encoding="UTF-8" standalone="no"?>
<!-- Created with Inkscape (http://www.inkscape.org/) -->

<svg
   xmlns:dc="http://purl.org/dc/elements/1.1/"
   xmlns:cc="http://creativecommons.org/ns#"
   xmlns:rdf="http://www.w3.org/1999/02/22-rdf-syntax-ns#"
   xmlns:svg="http://www.w3.org/2000/svg"
   xmlns="http://www.w3.org/2000/svg"
   xmlns:sodipodi="http://sodipodi.sourceforge.net/DTD/sodipodi-0.dtd"
   xmlns:inkscape="http://www.inkscape.org/namespaces/inkscape"
   width="10"
   height="10"
   viewBox="0 0 10 10"
   id="svg2"
   version="1.1"
   inkscape:version="0.91 r13725"
   sodipodi:docname="bullet.svg">
  <defs
     id="defs4" />
  <sodipodi:namedview
     id="base"
     pagecolor="#ffffff"
     bordercolor="#666666"
     borderopacity="1.0"
     inkscape:pageopacity="0.0"
     inkscape:pageshadow="2"
     inkscape:zoom="44.8"
     inkscape:cx="-1.9090303"
     inkscape:cy="5.579227"
     inkscape:document-units="px"
     inkscape:current-layer="layer1"
     showgrid="false"
     inkscape:window-width="1920"
     inkscape:window-height="1027"
     inkscape:window-x="1272"
     inkscape:window-y="-8"
     inkscape:window-maximized="1"
     units="px" />
  <metadata
     id="metadata7">
    <rdf:RDF>
      <cc:Work
         rdf:about="">
        <dc:format>image/svg+xml</dc:format>
        <dc:type
           rdf:resource="http://purl.org/dc/dcmitype/StillImage" />
        <dc:title></dc:title>
      </cc:Work>
    </rdf:RDF>
  </metadata>
  <g
     inkscape:label="Layer 1"
     inkscape:groupmode="layer"
     id="layer1"
     transform="translate(0,-1042.3622)">
    <g
       transform="scale(1.0016599,0.99834283)"
       style="font-style:normal;font-weight:normal;font-size:33.72998428px;line-height:125%;font-family:sans-serif;letter-spacing:0px;word-spacing:0px;fill:#412017;fill-opacity:1;stroke:none;stroke-width:1px;stroke-linecap:butt;stroke-linejoin:miter;stroke-opacity:1"
       id="text4159">
      <path
         d="m 0.41513055,1049.8418 0.03373,0.067 c 0,0.034 0.03373,0.1012 0.10118995,0.1687 0.10118996,0.034 0.23610989,0.067 0.40475982,0.1012 0.1686499,0.067 0.3710298,0.1012 0.6408697,0.1349 0.2698399,0.1012 0.6745997,0.4048 1.1805494,0.9444 0.4722198,0.506 0.8095197,0.9445 1.0118996,1.2818 0.2698399,0.5397 0.4722198,0.8095 0.6408697,0.8095 0.1011899,0 0.3710298,-0.2361 0.8432496,-0.7083 0.1011899,-0.135 0.2361099,-0.3036 0.3710298,-0.4385 0.1349199,-0.1349 0.2698399,-0.3036 0.4047598,-0.4722 0.7420597,-0.6072 1.4503893,-1.2143 2.192449,-1.7877 0.9107096,-0.8095 1.3829294,-1.5516 1.3829294,-2.2937 0,-0.1012 -0.06746,-0.2023 -0.16865,-0.2698 l -0.2361099,0.1012 -0.2698398,0.5397 -0.5059498,0.1686 c -0.6071397,0 -1.2480094,-0.5059 -1.9226091,-1.5516 -0.6745997,-1.0456 -1.0793595,-1.5853 -1.1468195,-1.619 -0.1011899,0.034 -0.2361099,0.1349 -0.3710298,0.3373 -0.2023799,0.3036 -0.4384898,0.6409 -0.7420596,1.0456 -0.3035699,0.4048 -0.6745997,0.8433 -1.1130895,1.3492 -0.3710299,0.2024 -0.7757897,0.4722 -1.2142795,0.8095 -0.4722197,0.3373 -0.9781695,0.7084 -1.51784925,1.1469 l 0,0.1349 z m 0.97816955,-0.4385 c 0.06746,-0.2024 0.2361099,-0.3373 0.5059498,-0.3373 0.3710298,0 1.0456295,0.5059 2.057529,1.4504 0,0.1012 0.2023799,0.371 0.5396797,0.7758 0.3372999,0.4722 0.5059498,0.7758 0.5059498,0.9444 0,0.3373 -0.1349199,0.4722 -0.4047598,0.4722 -0.1686499,0 -0.4047598,-0.2024 -0.6745997,-0.6408 -0.2698399,-0.4385 -0.8095196,-1.0794 -1.5515793,-1.9227 -0.3035698,-0.1349 -0.6408697,-0.371 -0.9781695,-0.742 z m 4.8233877,1.248 c 0,-0.1349 0.4384898,-0.5734 1.3154694,-1.3155 0.10119,-0.3035 0.3035699,-0.4385 0.6071397,-0.4385 0.20238,0.034 0.3372999,0.1012 0.3372999,0.1687 -0.2023799,0.3373 -0.5059498,0.6746 -0.9107096,1.0119 -0.5396797,0.4722 -0.9107096,0.6746 -1.1130895,0.6746 -0.1686499,0 -0.2361099,-0.034 -0.2361099,-0.1012 z m -0.6408697,-0.877 c 0,-0.067 0,-0.1012 0.06746,-0.1012 0.06746,-0.067 0.1349199,-0.1686 0.2361099,-0.3035 0.10119,-0.1012 0.2361099,-0.2361 0.4047598,-0.4048 0.3372999,-0.3373 0.6071397,-0.5059 0.8095196,-0.5059 0.2698399,0 0.4384898,0.1011 0.4384898,0.2361 0,0.1012 -0.2698398,0.371 -0.7420596,0.8432 -0.5396798,0.4722 -0.8432496,0.6746 -0.9107096,0.6746 -0.2023799,0 -0.3035699,-0.1349 -0.3035699,-0.4385 z m -0.5396797,-0.8095 c 0,-0.1349 0.03373,-0.2361 0.1011899,-0.3036 l 1.0456296,-0.9781 c 0,0 0.06746,-0.034 0.1349199,-0.034 0.2361099,0 0.3710298,0.135 0.3710298,0.3711 0,0.1349 -0.2023799,0.4047 -0.6071397,0.742 -0.4384898,0.4048 -0.7083297,0.5734 -0.7757896,0.5734 -0.2023799,0 -0.2698399,-0.1012 -0.2698399,-0.371 z m -0.6745997,-0.8095 c 0,-0.1012 0,-0.1687 0.06746,-0.2361 l 0.8769796,-0.877 c 0.1011899,-0.1012 0.2361099,-0.1687 0.3710298,-0.1687 0.2023799,0 0.3035699,0.1687 0.3035699,0.4385 0,0.068 -0.20238,0.3036 -0.5734098,0.6746 -0.3710298,0.3711 -0.6071397,0.5397 -0.7083296,0.5397 -0.2361099,0 -0.3372999,-0.1012 -0.3372999,-0.371 z m 0.2361099,-1.0456 0,0.034 -0.06746,0 0.06746,-0.034 z m 0.6071397,-0.9445 0.06746,0 c 0.06746,0 0.1349199,0.1012 0.1349199,0.2361 0,0.1349 -0.2361099,0.3373 -0.6408697,0.6072 0,-0.3373 0.13492,-0.6409 0.4384898,-0.8433 z"
         style="font-style:normal;font-variant:normal;font-weight:normal;font-stretch:normal;font-size:33.72998428px;line-height:125%;font-family:'Deutsche Zierschrift';-inkscape-font-specification:'Deutsche Zierschrift, Normal';text-align:start;writing-mode:lr-tb;text-anchor:start;fill:#412017;fill-opacity:1"
         id="path4164" />
    </g>
  </g>
</svg>
