<?xml version="1.0" encoding="UTF-8" standalone="no"?>
<svg
   xmlns:dc="http://purl.org/dc/elements/1.1/"
   xmlns:cc="http://creativecommons.org/ns#"
   xmlns:rdf="http://www.w3.org/1999/02/22-rdf-syntax-ns#"
   xmlns:svg="http://www.w3.org/2000/svg"
   xmlns="http://www.w3.org/2000/svg"
   version="1.1"
   id="svg2"
   viewBox="0 0 180 179.99999"
   height="180"
   width="180">
  <defs
     id="defs4" />
  <metadata
     id="metadata7">
    <rdf:RDF>
      <cc:Work
         rdf:about="">
        <dc:format>image/svg+xml</dc:format>
        <dc:type
           rdf:resource="http://purl.org/dc/dcmitype/StillImage" />
        <dc:title></dc:title>
      </cc:Work>
    </rdf:RDF>
  </metadata>
  <g
     transform="translate(0,-872.36223)"
     id="layer1">
    <path
       id="path4552-9"
       d="m 179.14097,1001.8434 c 0,0 -51.03861,0.4012 -51.03861,51.1398 l -72.251085,0.072 c 3e-6,-50.8102 -51.1398479,-51.0386 -51.1398479,-51.0386 l -0.071574,-72.2511 c 0,0 51.0386189,-0.16061 51.0386189,-51.13984 l 72.251088,-0.0716 c 0,51.0508 51.13984,51.03862 51.13984,51.03862 z"
       style="color:#000000;clip-rule:nonzero;display:inline;overflow:visible;visibility:visible;opacity:1;isolation:auto;mix-blend-mode:normal;color-interpolation:sRGB;color-interpolation-filters:linearRGB;solid-color:#000000;solid-opacity:1;fill:#aca9a6;fill-opacity:1;fill-rule:evenodd;stroke:none;stroke-width:4;stroke-linecap:square;stroke-linejoin:bevel;stroke-miterlimit:4;stroke-dasharray:none;stroke-dashoffset:0;stroke-opacity:1;color-rendering:auto;image-rendering:auto;shape-rendering:auto;text-rendering:auto;enable-background:accumulate" />
    <path
       id="path4552"
       d="m 175.66359,996.76257 c 0,0 -51.03862,0.40129 -51.03862,51.13983 l -72.251083,0.072 c 0,-50.81013 -51.1398476,-51.03859 -51.1398476,-51.03859 l -0.071574,-72.25112 c 0,0 51.0386186,-0.16061 51.0386156,-51.13984 l 72.251089,-0.0716 c 0,51.0508 51.13985,51.03862 51.13985,51.03862 z"
       style="color:#000000;clip-rule:nonzero;display:inline;overflow:visible;visibility:visible;opacity:1;isolation:auto;mix-blend-mode:normal;color-interpolation:sRGB;color-interpolation-filters:linearRGB;solid-color:#000000;solid-opacity:1;fill:#ffffff;fill-opacity:1;fill-rule:evenodd;stroke:#695941;stroke-width:1.11927998;stroke-linecap:square;stroke-linejoin:bevel;stroke-miterlimit:4;stroke-dasharray:none;stroke-dashoffset:0;stroke-opacity:1;color-rendering:auto;image-rendering:auto;shape-rendering:auto;text-rendering:auto;enable-background:accumulate" />
  </g>
</svg>
